<svg width="731" height="109" viewBox="0 0 731 109" fill="none" xmlns="http://www.w3.org/2000/svg">
<rect y="2" width="729" height="105" rx="8" fill="url(#paint0_linear_161_11)"/>
<path d="M70.4079 42V46.2H61.4979V63H55.5579V46.2H46.6179V42H70.4079ZM84.825 63.69C83.085 63.69 81.415 63.45 79.815 62.97C78.215 62.49 76.795 61.78 75.555 60.84C74.335 59.9 73.355 58.74 72.615 57.36C71.895 55.96 71.535 54.34 71.535 52.5C71.535 50.66 71.895 49.05 72.615 47.67C73.355 46.27 74.335 45.1 75.555 44.16C76.795 43.22 78.215 42.51 79.815 42.03C81.415 41.55 83.085 41.31 84.825 41.31C86.565 41.31 88.235 41.55 89.835 42.03C91.455 42.51 92.875 43.22 94.095 44.16C95.335 45.1 96.315 46.27 97.035 47.67C97.775 49.05 98.145 50.66 98.145 52.5C98.145 54.34 97.775 55.96 97.035 57.36C96.315 58.74 95.335 59.9 94.095 60.84C92.875 61.78 91.455 62.49 89.835 62.97C88.235 63.45 86.565 63.69 84.825 63.69ZM77.475 52.5C77.475 53.66 77.655 54.64 78.015 55.44C78.375 56.24 78.875 56.89 79.515 57.39C80.155 57.89 80.925 58.25 81.825 58.47C82.725 58.69 83.725 58.8 84.825 58.8C85.925 58.8 86.925 58.69 87.825 58.47C88.725 58.25 89.495 57.89 90.135 57.39C90.795 56.89 91.295 56.24 91.635 55.44C91.995 54.64 92.175 53.66 92.175 52.5C92.175 51.34 91.995 50.36 91.635 49.56C91.295 48.76 90.795 48.11 90.135 47.61C89.495 47.11 88.725 46.75 87.825 46.53C86.925 46.31 85.925 46.2 84.825 46.2C83.725 46.2 82.725 46.31 81.825 46.53C80.925 46.75 80.155 47.11 79.515 47.61C78.875 48.11 78.375 48.76 78.015 49.56C77.655 50.36 77.475 51.34 77.475 52.5ZM115.524 42C117.264 42 118.784 42.17 120.084 42.51C121.404 42.83 122.504 43.38 123.384 44.16C124.264 44.92 124.924 45.93 125.364 47.19C125.804 48.43 126.024 49.97 126.024 51.81V53.19C126.024 55.03 125.804 56.58 125.364 57.84C124.924 59.08 124.264 60.09 123.384 60.87C122.504 61.63 121.404 62.18 120.084 62.52C118.784 62.84 117.264 63 115.524 63H100.824V42H115.524ZM120.414 51.81C120.414 50.65 120.334 49.71 120.174 48.99C120.014 48.25 119.744 47.68 119.364 47.28C119.004 46.86 118.504 46.58 117.864 46.44C117.244 46.28 116.464 46.2 115.524 46.2H106.764V58.8H115.524C116.444 58.8 117.214 58.73 117.834 58.59C118.474 58.43 118.984 58.15 119.364 57.75C119.744 57.33 120.014 56.76 120.174 56.04C120.334 55.3 120.414 54.35 120.414 53.19V51.81ZM141.339 63.69C139.599 63.69 137.929 63.45 136.329 62.97C134.729 62.49 133.309 61.78 132.069 60.84C130.849 59.9 129.869 58.74 129.129 57.36C128.409 55.96 128.049 54.34 128.049 52.5C128.049 50.66 128.409 49.05 129.129 47.67C129.869 46.27 130.849 45.1 132.069 44.16C133.309 43.22 134.729 42.51 136.329 42.03C137.929 41.55 139.599 41.31 141.339 41.31C143.079 41.31 144.749 41.55 146.349 42.03C147.969 42.51 149.389 43.22 150.609 44.16C151.849 45.1 152.829 46.27 153.549 47.67C154.289 49.05 154.659 50.66 154.659 52.5C154.659 54.34 154.289 55.96 153.549 57.36C152.829 58.74 151.849 59.9 150.609 60.84C149.389 61.78 147.969 62.49 146.349 62.97C144.749 63.45 143.079 63.69 141.339 63.69ZM133.989 52.5C133.989 53.66 134.169 54.64 134.529 55.44C134.889 56.24 135.389 56.89 136.029 57.39C136.669 57.89 137.439 58.25 138.339 58.47C139.239 58.69 140.239 58.8 141.339 58.8C142.439 58.8 143.439 58.69 144.339 58.47C145.239 58.25 146.009 57.89 146.649 57.39C147.309 56.89 147.809 56.24 148.149 55.44C148.509 54.64 148.689 53.66 148.689 52.5C148.689 51.34 148.509 50.36 148.149 49.56C147.809 48.76 147.309 48.11 146.649 47.61C146.009 47.11 145.239 46.75 144.339 46.53C143.439 46.31 142.439 46.2 141.339 46.2C140.239 46.2 139.239 46.31 138.339 46.53C137.439 46.75 136.669 47.11 136.029 47.61C135.389 48.11 134.889 48.76 134.529 49.56C134.169 50.36 133.989 51.34 133.989 52.5ZM163.188 47.43C163.188 47.87 163.418 48.23 163.878 48.51C164.338 48.79 164.888 49.02 165.528 49.2C166.168 49.38 166.818 49.52 167.478 49.62C168.158 49.72 168.708 49.8 169.128 49.86C171.468 50.24 173.438 50.62 175.038 51C176.658 51.36 177.958 51.81 178.938 52.35C179.938 52.89 180.648 53.56 181.068 54.36C181.508 55.16 181.728 56.17 181.728 57.39C181.728 58.55 181.318 59.53 180.498 60.33C179.698 61.13 178.668 61.78 177.408 62.28C176.148 62.78 174.768 63.14 173.268 63.36C171.768 63.58 170.328 63.69 168.948 63.69C167.368 63.69 165.838 63.55 164.358 63.27C162.898 63.01 161.598 62.6 160.458 62.04C159.318 61.48 158.408 60.79 157.728 59.97C157.048 59.13 156.708 58.16 156.708 57.06H163.518C163.518 57.56 163.738 57.96 164.178 58.26C164.638 58.56 165.178 58.79 165.798 58.95C166.418 59.11 167.038 59.22 167.658 59.28C168.298 59.32 168.798 59.34 169.158 59.34C169.558 59.34 170.068 59.33 170.688 59.31C171.328 59.27 171.948 59.19 172.548 59.07C173.148 58.95 173.658 58.76 174.078 58.5C174.518 58.24 174.738 57.87 174.738 57.39C174.738 56.87 174.498 56.46 174.018 56.16C173.558 55.84 173.018 55.59 172.398 55.41C171.778 55.23 171.148 55.1 170.508 55.02C169.888 54.92 169.428 54.84 169.128 54.78C167.248 54.42 165.538 54.09 163.998 53.79C162.458 53.49 161.128 53.1 160.008 52.62C158.908 52.14 158.048 51.52 157.428 50.76C156.828 49.98 156.528 48.93 156.528 47.61C156.528 46.49 156.918 45.54 157.698 44.76C158.478 43.96 159.478 43.31 160.698 42.81C161.918 42.29 163.258 41.91 164.718 41.67C166.178 41.43 167.588 41.31 168.948 41.31C170.628 41.31 172.228 41.45 173.748 41.73C175.288 41.99 176.628 42.4 177.768 42.96C178.928 43.52 179.848 44.21 180.528 45.03C181.208 45.85 181.548 46.82 181.548 47.94H174.738C174.738 47.46 174.498 47.07 174.018 46.77C173.558 46.47 173.008 46.24 172.368 46.08C171.748 45.9 171.108 45.79 170.448 45.75C169.808 45.69 169.308 45.66 168.948 45.66C168.608 45.66 168.118 45.68 167.478 45.72C166.838 45.76 166.198 45.85 165.558 45.99C164.918 46.11 164.358 46.29 163.878 46.53C163.418 46.75 163.188 47.05 163.188 47.43ZM205.177 63.69C203.437 63.69 201.767 63.45 200.167 62.97C198.567 62.49 197.147 61.78 195.907 60.84C194.687 59.9 193.707 58.74 192.967 57.36C192.247 55.96 191.887 54.34 191.887 52.5C191.887 50.66 192.247 49.05 192.967 47.67C193.707 46.27 194.687 45.1 195.907 44.16C197.147 43.22 198.567 42.51 200.167 42.03C201.767 41.55 203.437 41.31 205.177 41.31C206.917 41.31 208.587 41.55 210.187 42.03C211.807 42.51 213.227 43.22 214.447 44.16C215.687 45.1 216.667 46.27 217.387 47.67C218.127 49.05 218.497 50.66 218.497 52.5C218.497 54.34 218.127 55.96 217.387 57.36C216.667 58.74 215.687 59.9 214.447 60.84C213.227 61.78 211.807 62.49 210.187 62.97C208.587 63.45 206.917 63.69 205.177 63.69ZM197.827 52.5C197.827 53.66 198.007 54.64 198.367 55.44C198.727 56.24 199.227 56.89 199.867 57.39C200.507 57.89 201.277 58.25 202.177 58.47C203.077 58.69 204.077 58.8 205.177 58.8C206.277 58.8 207.277 58.69 208.177 58.47C209.077 58.25 209.847 57.89 210.487 57.39C211.147 56.89 211.647 56.24 211.987 55.44C212.347 54.64 212.527 53.66 212.527 52.5C212.527 51.34 212.347 50.36 211.987 49.56C211.647 48.76 211.147 48.11 210.487 47.61C209.847 47.11 209.077 46.75 208.177 46.53C207.277 46.31 206.277 46.2 205.177 46.2C204.077 46.2 203.077 46.31 202.177 46.53C201.277 46.75 200.507 47.11 199.867 47.61C199.227 48.11 198.727 48.76 198.367 49.56C198.007 50.36 197.827 51.34 197.827 52.5ZM227.026 47.43C227.026 47.87 227.256 48.23 227.716 48.51C228.176 48.79 228.726 49.02 229.366 49.2C230.006 49.38 230.656 49.52 231.316 49.62C231.996 49.72 232.546 49.8 232.966 49.86C235.306 50.24 237.276 50.62 238.876 51C240.496 51.36 241.796 51.81 242.776 52.35C243.776 52.89 244.486 53.56 244.906 54.36C245.346 55.16 245.566 56.17 245.566 57.39C245.566 58.55 245.156 59.53 244.336 60.33C243.536 61.13 242.506 61.78 241.246 62.28C239.986 62.78 238.606 63.14 237.106 63.36C235.606 63.58 234.166 63.69 232.786 63.69C231.206 63.69 229.676 63.55 228.196 63.27C226.736 63.01 225.436 62.6 224.296 62.04C223.156 61.48 222.246 60.79 221.566 59.97C220.886 59.13 220.546 58.16 220.546 57.06H227.356C227.356 57.56 227.576 57.96 228.016 58.26C228.476 58.56 229.016 58.79 229.636 58.95C230.256 59.11 230.876 59.22 231.496 59.28C232.136 59.32 232.636 59.34 232.996 59.34C233.396 59.34 233.906 59.33 234.526 59.31C235.166 59.27 235.786 59.19 236.386 59.07C236.986 58.95 237.496 58.76 237.916 58.5C238.356 58.24 238.576 57.87 238.576 57.39C238.576 56.87 238.336 56.46 237.856 56.16C237.396 55.84 236.856 55.59 236.236 55.41C235.616 55.23 234.986 55.1 234.346 55.02C233.726 54.92 233.266 54.84 232.966 54.78C231.086 54.42 229.376 54.09 227.836 53.79C226.296 53.49 224.966 53.1 223.846 52.62C222.746 52.14 221.886 51.52 221.266 50.76C220.666 49.98 220.366 48.93 220.366 47.61C220.366 46.49 220.756 45.54 221.536 44.76C222.316 43.96 223.316 43.31 224.536 42.81C225.756 42.29 227.096 41.91 228.556 41.67C230.016 41.43 231.426 41.31 232.786 41.31C234.466 41.31 236.066 41.45 237.586 41.73C239.126 41.99 240.466 42.4 241.606 42.96C242.766 43.52 243.686 44.21 244.366 45.03C245.046 45.85 245.386 46.82 245.386 47.94H238.576C238.576 47.46 238.336 47.07 237.856 46.77C237.396 46.47 236.846 46.24 236.206 46.08C235.586 45.9 234.946 45.79 234.286 45.75C233.646 45.69 233.146 45.66 232.786 45.66C232.446 45.66 231.956 45.68 231.316 45.72C230.676 45.76 230.036 45.85 229.396 45.99C228.756 46.11 228.196 46.29 227.716 46.53C227.256 46.75 227.026 47.05 227.026 47.43ZM273.814 42C274.934 42 275.974 42.18 276.934 42.54C277.914 42.88 278.764 43.37 279.484 44.01C280.224 44.65 280.804 45.42 281.224 46.32C281.644 47.22 281.854 48.23 281.854 49.35C281.854 50.45 281.644 51.46 281.224 52.38C280.804 53.28 280.224 54.05 279.484 54.69C278.764 55.33 277.914 55.83 276.934 56.19C275.974 56.53 274.934 56.7 273.814 56.7H262.594V63H256.654V42H273.814ZM262.594 46.2V52.5H273.814C274.194 52.5 274.574 52.42 274.954 52.26C275.334 52.08 275.674 51.85 275.974 51.57C276.274 51.29 276.514 50.96 276.694 50.58C276.874 50.2 276.964 49.79 276.964 49.35C276.964 48.85 276.874 48.41 276.694 48.03C276.514 47.63 276.274 47.3 275.974 47.04C275.674 46.76 275.334 46.55 274.954 46.41C274.574 46.27 274.194 46.2 273.814 46.2H262.594ZM284.281 42H290.221V58.8H305.281V63H284.281V42ZM330.829 63H324.889L323.119 58.8H313.339L311.569 63H305.629L314.029 42H322.429L330.829 63ZM321.379 54.6L318.229 45.51L314.719 54.6H321.379ZM353.378 56.52V42H359.348V63H351.998L338.678 48.48V63H332.738V42H340.088L353.378 56.52ZM375.304 63.69C373.564 63.69 371.894 63.45 370.294 62.97C368.694 62.49 367.274 61.78 366.034 60.84C364.814 59.9 363.834 58.74 363.094 57.36C362.374 55.96 362.014 54.34 362.014 52.5C362.014 50.66 362.374 49.05 363.094 47.67C363.834 46.27 364.814 45.1 366.034 44.16C367.274 43.22 368.694 42.51 370.294 42.03C371.894 41.55 373.564 41.31 375.304 41.31C377.044 41.31 378.714 41.55 380.314 42.03C381.934 42.51 383.354 43.22 384.574 44.16C385.814 45.1 386.794 46.27 387.514 47.67C388.254 49.05 388.624 50.66 388.624 52.5C388.624 54.34 388.254 55.96 387.514 57.36C386.794 58.74 385.814 59.9 384.574 60.84C383.354 61.78 381.934 62.49 380.314 62.97C378.714 63.45 377.044 63.69 375.304 63.69ZM367.954 52.5C367.954 53.66 368.134 54.64 368.494 55.44C368.854 56.24 369.354 56.89 369.994 57.39C370.634 57.89 371.404 58.25 372.304 58.47C373.204 58.69 374.204 58.8 375.304 58.8C376.404 58.8 377.404 58.69 378.304 58.47C379.204 58.25 379.974 57.89 380.614 57.39C381.274 56.89 381.774 56.24 382.114 55.44C382.474 54.64 382.654 53.66 382.654 52.5C382.654 51.34 382.474 50.36 382.114 49.56C381.774 48.76 381.274 48.11 380.614 47.61C379.974 47.11 379.204 46.75 378.304 46.53C377.404 46.31 376.404 46.2 375.304 46.2C374.204 46.2 373.204 46.31 372.304 46.53C371.404 46.75 370.634 47.11 369.994 47.61C369.354 48.11 368.854 48.76 368.494 49.56C368.134 50.36 367.954 51.34 367.954 52.5ZM397.153 47.43C397.153 47.87 397.383 48.23 397.843 48.51C398.303 48.79 398.853 49.02 399.493 49.2C400.133 49.38 400.783 49.52 401.443 49.62C402.123 49.72 402.673 49.8 403.093 49.86C405.433 50.24 407.403 50.62 409.003 51C410.623 51.36 411.923 51.81 412.903 52.35C413.903 52.89 414.613 53.56 415.033 54.36C415.473 55.16 415.693 56.17 415.693 57.39C415.693 58.55 415.283 59.53 414.463 60.33C413.663 61.13 412.633 61.78 411.373 62.28C410.113 62.78 408.733 63.14 407.233 63.36C405.733 63.58 404.293 63.69 402.913 63.69C401.333 63.69 399.803 63.55 398.323 63.27C396.863 63.01 395.563 62.6 394.423 62.04C393.283 61.48 392.373 60.79 391.693 59.97C391.013 59.13 390.673 58.16 390.673 57.06H397.483C397.483 57.56 397.703 57.96 398.143 58.26C398.603 58.56 399.143 58.79 399.763 58.95C400.383 59.11 401.003 59.22 401.623 59.28C402.263 59.32 402.763 59.34 403.123 59.34C403.523 59.34 404.033 59.33 404.653 59.31C405.293 59.27 405.913 59.19 406.513 59.07C407.113 58.95 407.623 58.76 408.043 58.5C408.483 58.24 408.703 57.87 408.703 57.39C408.703 56.87 408.463 56.46 407.983 56.16C407.523 55.84 406.983 55.59 406.363 55.41C405.743 55.23 405.113 55.1 404.473 55.02C403.853 54.92 403.393 54.84 403.093 54.78C401.213 54.42 399.503 54.09 397.963 53.79C396.423 53.49 395.093 53.1 393.973 52.62C392.873 52.14 392.013 51.52 391.393 50.76C390.793 49.98 390.493 48.93 390.493 47.61C390.493 46.49 390.883 45.54 391.663 44.76C392.443 43.96 393.443 43.31 394.663 42.81C395.883 42.29 397.223 41.91 398.683 41.67C400.143 41.43 401.553 41.31 402.913 41.31C404.593 41.31 406.193 41.45 407.713 41.73C409.253 41.99 410.593 42.4 411.733 42.96C412.893 43.52 413.813 44.21 414.493 45.03C415.173 45.85 415.513 46.82 415.513 47.94H408.703C408.703 47.46 408.463 47.07 407.983 46.77C407.523 46.47 406.973 46.24 406.333 46.08C405.713 45.9 405.073 45.79 404.413 45.75C403.773 45.69 403.273 45.66 402.913 45.66C402.573 45.66 402.083 45.68 401.443 45.72C400.803 45.76 400.163 45.85 399.523 45.99C398.883 46.11 398.323 46.29 397.843 46.53C397.383 46.75 397.153 47.05 397.153 47.43ZM446.461 48.99C446.181 48.49 445.801 48.05 445.321 47.67C444.841 47.27 444.291 46.94 443.671 46.68C443.051 46.4 442.381 46.19 441.661 46.05C440.961 45.91 440.231 45.84 439.471 45.84C438.371 45.84 437.351 45.97 436.411 46.23C435.471 46.49 434.651 46.89 433.951 47.43C433.271 47.97 432.731 48.66 432.331 49.5C431.951 50.34 431.761 51.34 431.761 52.5C431.761 53.66 431.951 54.66 432.331 55.5C432.731 56.34 433.271 57.03 433.951 57.57C434.651 58.11 435.471 58.51 436.411 58.77C437.351 59.03 438.371 59.16 439.471 59.16C440.231 59.16 440.961 59.09 441.661 58.95C442.381 58.81 443.051 58.61 443.671 58.35C444.291 58.07 444.841 57.74 445.321 57.36C445.801 56.96 446.181 56.51 446.461 56.01H452.431C452.011 57.27 451.371 58.38 450.511 59.34C449.651 60.3 448.641 61.1 447.481 61.74C446.321 62.38 445.051 62.86 443.671 63.18C442.311 63.52 440.911 63.69 439.471 63.69C437.731 63.69 436.041 63.45 434.401 62.97C432.761 62.49 431.301 61.78 430.021 60.84C428.761 59.9 427.741 58.74 426.961 57.36C426.201 55.96 425.821 54.34 425.821 52.5C425.821 50.66 426.201 49.05 426.961 47.67C427.741 46.27 428.761 45.1 430.021 44.16C431.301 43.22 432.761 42.51 434.401 42.03C436.041 41.55 437.731 41.31 439.471 41.31C440.911 41.31 442.311 41.47 443.671 41.79C445.051 42.11 446.321 42.6 447.481 43.26C448.641 43.9 449.651 44.7 450.511 45.66C451.371 46.62 452.011 47.73 452.431 48.99H446.461ZM467.296 63.69C465.556 63.69 463.886 63.45 462.286 62.97C460.686 62.49 459.266 61.78 458.026 60.84C456.806 59.9 455.826 58.74 455.086 57.36C454.366 55.96 454.006 54.34 454.006 52.5C454.006 50.66 454.366 49.05 455.086 47.67C455.826 46.27 456.806 45.1 458.026 44.16C459.266 43.22 460.686 42.51 462.286 42.03C463.886 41.55 465.556 41.31 467.296 41.31C469.036 41.31 470.706 41.55 472.306 42.03C473.926 42.51 475.346 43.22 476.566 44.16C477.806 45.1 478.786 46.27 479.506 47.67C480.246 49.05 480.616 50.66 480.616 52.5C480.616 54.34 480.246 55.96 479.506 57.36C478.786 58.74 477.806 59.9 476.566 60.84C475.346 61.78 473.926 62.49 472.306 62.97C470.706 63.45 469.036 63.69 467.296 63.69ZM459.946 52.5C459.946 53.66 460.126 54.64 460.486 55.44C460.846 56.24 461.346 56.89 461.986 57.39C462.626 57.89 463.396 58.25 464.296 58.47C465.196 58.69 466.196 58.8 467.296 58.8C468.396 58.8 469.396 58.69 470.296 58.47C471.196 58.25 471.966 57.89 472.606 57.39C473.266 56.89 473.766 56.24 474.106 55.44C474.466 54.64 474.646 53.66 474.646 52.5C474.646 51.34 474.466 50.36 474.106 49.56C473.766 48.76 473.266 48.11 472.606 47.61C471.966 47.11 471.196 46.75 470.296 46.53C469.396 46.31 468.396 46.2 467.296 46.2C466.196 46.2 465.196 46.31 464.296 46.53C463.396 46.75 462.626 47.11 461.986 47.61C461.346 48.11 460.846 48.76 460.486 49.56C460.126 50.36 459.946 51.34 459.946 52.5ZM501.835 63H496.945L489.235 48.3V63H483.295V42H491.335L499.405 57.06L507.445 42H515.485V63H509.545V48.3L501.835 63ZM532.787 51.45C533.127 51.11 533.567 50.81 534.107 50.55C534.567 50.33 535.147 50.13 535.847 49.95C536.547 49.77 537.387 49.68 538.367 49.68C540.287 49.68 541.807 49.85 542.927 50.19C544.047 50.51 544.887 50.99 545.447 51.63C546.027 52.27 546.387 53.08 546.527 54.06C546.687 55.02 546.767 56.13 546.767 57.39C546.767 58.43 546.517 59.35 546.017 60.15C545.537 60.93 544.857 61.59 543.977 62.13C543.117 62.65 542.087 63.04 540.887 63.3C539.707 63.56 538.407 63.69 536.987 63.69C535.447 63.69 534.067 63.57 532.847 63.33C531.627 63.11 530.597 62.75 529.757 62.25C528.917 61.75 528.277 61.1 527.837 60.3C527.397 59.5 527.177 58.53 527.177 57.39V48.99C527.177 47.87 527.387 46.84 527.807 45.9C528.247 44.96 528.887 44.15 529.727 43.47C530.567 42.79 531.597 42.26 532.817 41.88C534.037 41.48 535.427 41.28 536.987 41.28C538.727 41.28 540.217 41.45 541.457 41.79C542.697 42.13 543.707 42.6 544.487 43.2C545.287 43.8 545.867 44.51 546.227 45.33C546.587 46.13 546.767 47 546.767 47.94H540.827C540.827 47.06 540.527 46.38 539.927 45.9C539.327 45.4 538.347 45.15 536.987 45.15C535.607 45.15 534.557 45.38 533.837 45.84C533.137 46.3 532.787 46.88 532.787 47.58V51.45ZM536.987 59.67C537.587 59.67 538.147 59.63 538.667 59.55C539.187 59.45 539.627 59.28 539.987 59.04C540.367 58.8 540.657 58.47 540.857 58.05C541.077 57.61 541.187 57.04 541.187 56.34C541.187 55.9 541.147 55.46 541.067 55.02C540.987 54.58 540.817 54.19 540.557 53.85C540.297 53.49 539.907 53.2 539.387 52.98C538.887 52.76 538.197 52.65 537.317 52.65C536.397 52.65 535.637 52.73 535.037 52.89C534.457 53.05 533.997 53.29 533.657 53.61C533.337 53.91 533.107 54.29 532.967 54.75C532.847 55.21 532.787 55.74 532.787 56.34C532.787 57.04 532.887 57.61 533.087 58.05C533.307 58.47 533.597 58.8 533.957 59.04C534.337 59.28 534.777 59.45 535.277 59.55C535.797 59.63 536.367 59.67 536.987 59.67ZM559.981 63.69C558.501 63.69 557.081 63.45 555.721 62.97C554.381 62.49 553.191 61.78 552.151 60.84C551.131 59.9 550.311 58.74 549.691 57.36C549.091 55.96 548.791 54.34 548.791 52.5C548.791 50.66 549.091 49.05 549.691 47.67C550.311 46.27 551.131 45.1 552.151 44.16C553.191 43.22 554.381 42.51 555.721 42.03C557.081 41.55 558.501 41.31 559.981 41.31C561.481 41.31 562.901 41.55 564.241 42.03C565.601 42.51 566.791 43.22 567.811 44.16C568.851 45.1 569.671 46.27 570.271 47.67C570.891 49.05 571.201 50.66 571.201 52.5C571.201 54.34 570.891 55.96 570.271 57.36C569.671 58.74 568.851 59.9 567.811 60.84C566.791 61.78 565.601 62.49 564.241 62.97C562.901 63.45 561.481 63.69 559.981 63.69ZM554.731 52.5C554.731 53.46 554.821 54.35 555.001 55.17C555.201 55.97 555.501 56.67 555.901 57.27C556.321 57.87 556.861 58.34 557.521 58.68C558.201 59 559.021 59.16 559.981 59.16C560.941 59.16 561.751 59 562.411 58.68C563.091 58.34 563.641 57.87 564.061 57.27C564.481 56.67 564.781 55.97 564.961 55.17C565.141 54.35 565.231 53.46 565.231 52.5C565.231 51.54 565.141 50.66 564.961 49.86C564.781 49.04 564.481 48.33 564.061 47.73C563.641 47.13 563.091 46.67 562.411 46.35C561.751 46.01 560.941 45.84 559.981 45.84C559.021 45.84 558.201 46.01 557.521 46.35C556.861 46.67 556.321 47.13 555.901 47.73C555.501 48.33 555.201 49.04 555.001 49.86C554.821 50.66 554.731 51.54 554.731 52.5ZM577.501 63L592.891 42H598.501L583.081 63H577.501ZM573.991 46.89C573.991 46.21 574.161 45.58 574.501 45C574.841 44.4 575.301 43.88 575.881 43.44C576.461 43 577.131 42.65 577.891 42.39C578.651 42.13 579.451 42 580.291 42C581.191 42 582.021 42.13 582.781 42.39C583.561 42.65 584.231 43 584.791 43.44C585.351 43.88 585.791 44.4 586.111 45C586.431 45.58 586.591 46.21 586.591 46.89C586.591 47.57 586.421 48.21 586.081 48.81C585.741 49.41 585.281 49.93 584.701 50.37C584.141 50.81 583.471 51.16 582.691 51.42C581.931 51.68 581.131 51.81 580.291 51.81C579.391 51.81 578.551 51.68 577.771 51.42C577.011 51.16 576.351 50.81 575.791 50.37C575.231 49.93 574.791 49.41 574.471 48.81C574.151 48.21 573.991 47.57 573.991 46.89ZM595.681 63C594.781 63 593.941 62.87 593.161 62.61C592.401 62.35 591.741 62 591.181 61.56C590.621 61.12 590.181 60.61 589.861 60.03C589.541 59.43 589.381 58.79 589.381 58.11C589.381 57.43 589.551 56.79 589.891 56.19C590.231 55.59 590.691 55.07 591.271 54.63C591.851 54.19 592.521 53.84 593.281 53.58C594.041 53.32 594.841 53.19 595.681 53.19C596.581 53.19 597.411 53.32 598.171 53.58C598.951 53.84 599.621 54.19 600.181 54.63C600.741 55.07 601.181 55.59 601.501 56.19C601.821 56.79 601.981 57.43 601.981 58.11C601.981 58.79 601.811 59.43 601.471 60.03C601.131 60.61 600.671 61.12 600.091 61.56C599.531 62 598.861 62.35 598.081 62.61C597.321 62.87 596.521 63 595.681 63ZM593.581 58.11C593.581 58.49 593.601 58.82 593.641 59.1C593.681 59.36 593.771 59.57 593.911 59.73C594.071 59.89 594.291 60.01 594.571 60.09C594.851 60.17 595.221 60.21 595.681 60.21C596.201 60.21 596.601 60.17 596.881 60.09C597.161 60.01 597.361 59.89 597.481 59.73C597.621 59.57 597.701 59.36 597.721 59.1C597.761 58.82 597.781 58.49 597.781 58.11C597.781 57.73 597.771 57.41 597.751 57.15C597.731 56.87 597.651 56.65 597.511 56.49C597.371 56.33 597.161 56.21 596.881 56.13C596.601 56.05 596.201 56.01 595.681 56.01C595.201 56.01 594.821 56.04 594.541 56.1C594.261 56.16 594.051 56.27 593.911 56.43C593.771 56.59 593.681 56.81 593.641 57.09C593.601 57.35 593.581 57.69 593.581 58.11ZM580.291 44.79C579.791 44.79 579.401 44.83 579.121 44.91C578.841 44.97 578.631 45.08 578.491 45.24C578.351 45.4 578.261 45.62 578.221 45.9C578.201 46.16 578.191 46.49 578.191 46.89C578.191 47.27 578.211 47.6 578.251 47.88C578.291 48.14 578.381 48.35 578.521 48.51C578.681 48.67 578.891 48.79 579.151 48.87C579.431 48.95 579.811 48.99 580.291 48.99C580.811 48.99 581.211 48.96 581.491 48.9C581.771 48.82 581.971 48.7 582.091 48.54C582.231 48.36 582.311 48.14 582.331 47.88C582.371 47.6 582.391 47.27 582.391 46.89C582.391 46.51 582.381 46.19 582.361 45.93C582.341 45.67 582.261 45.46 582.121 45.3C581.981 45.12 581.771 44.99 581.491 44.91C581.211 44.83 580.811 44.79 580.291 44.79ZM617.677 63.69C615.937 63.69 614.267 63.45 612.667 62.97C611.067 62.49 609.647 61.78 608.407 60.84C607.187 59.9 606.207 58.74 605.467 57.36C604.747 55.96 604.387 54.34 604.387 52.5C604.387 50.66 604.747 49.05 605.467 47.67C606.207 46.27 607.187 45.1 608.407 44.16C609.647 43.22 611.067 42.51 612.667 42.03C614.267 41.55 615.937 41.31 617.677 41.31C619.417 41.31 621.087 41.55 622.687 42.03C624.307 42.51 625.727 43.22 626.947 44.16C628.187 45.1 629.167 46.27 629.887 47.67C630.627 49.05 630.997 50.66 630.997 52.5C630.997 54.34 630.627 55.96 629.887 57.36C629.167 58.74 628.187 59.9 626.947 60.84C625.727 61.78 624.307 62.49 622.687 62.97C621.087 63.45 619.417 63.69 617.677 63.69ZM610.327 52.5C610.327 53.66 610.507 54.64 610.867 55.44C611.227 56.24 611.727 56.89 612.367 57.39C613.007 57.89 613.777 58.25 614.677 58.47C615.577 58.69 616.577 58.8 617.677 58.8C618.777 58.8 619.777 58.69 620.677 58.47C621.577 58.25 622.347 57.89 622.987 57.39C623.647 56.89 624.147 56.24 624.487 55.44C624.847 54.64 625.027 53.66 625.027 52.5C625.027 51.34 624.847 50.36 624.487 49.56C624.147 48.76 623.647 48.11 622.987 47.61C622.347 47.11 621.577 46.75 620.677 46.53C619.777 46.31 618.777 46.2 617.677 46.2C616.577 46.2 615.577 46.31 614.677 46.53C613.777 46.75 613.007 47.11 612.367 47.61C611.727 48.11 611.227 48.76 610.867 49.56C610.507 50.36 610.327 51.34 610.327 52.5ZM639.616 63H633.676V42H656.086V46.2H639.616V51.81H654.676V56.01H639.616V63ZM664.489 63H658.549V42H680.959V46.2H664.489V51.81H679.549V56.01H664.489V63Z" fill="#2EAAF8"/>
<g filter="url(#filter0_f_161_11)">
<rect x="11" y="2" width="718" height="3" fill="url(#paint1_linear_161_11)"/>
</g>
<g filter="url(#filter1_f_161_11)">
<rect x="11" y="104" width="718" height="3" fill="url(#paint2_linear_161_11)"/>
</g>
<defs>
<filter id="filter0_f_161_11" x="9.1" y="0.1" width="721.8" height="6.8" filterUnits="userSpaceOnUse" color-interpolation-filters="sRGB">
<feFlood flood-opacity="0" result="BackgroundImageFix"/>
<feBlend mode="normal" in="SourceGraphic" in2="BackgroundImageFix" result="shape"/>
<feGaussianBlur stdDeviation="0.95" result="effect1_foregroundBlur_161_11"/>
</filter>
<filter id="filter1_f_161_11" x="9.1" y="102.1" width="721.8" height="6.8" filterUnits="userSpaceOnUse" color-interpolation-filters="sRGB">
<feFlood flood-opacity="0" result="BackgroundImageFix"/>
<feBlend mode="normal" in="SourceGraphic" in2="BackgroundImageFix" result="shape"/>
<feGaussianBlur stdDeviation="0.95" result="effect1_foregroundBlur_161_11"/>
</filter>
<linearGradient id="paint0_linear_161_11" x1="0" y1="54.5" x2="729" y2="54.5" gradientUnits="userSpaceOnUse">
<stop stop-color="#0F1925"/>
<stop offset="0.5" stop-color="#01040A"/>
<stop offset="1" stop-color="#0F1925"/>
</linearGradient>
<linearGradient id="paint1_linear_161_11" x1="11" y1="3.5" x2="729" y2="3.5" gradientUnits="userSpaceOnUse">
<stop stop-color="#97D5FC" stop-opacity="0"/>
<stop offset="0.35" stop-color="#2EAAF8"/>
<stop offset="0.5" stop-color="#A1DBFF"/>
<stop offset="0.65" stop-color="#2EAAF8"/>
<stop offset="1" stop-color="#97D5FC" stop-opacity="0"/>
</linearGradient>
<linearGradient id="paint2_linear_161_11" x1="11" y1="105.5" x2="729" y2="105.5" gradientUnits="userSpaceOnUse">
<stop stop-color="#97D5FC" stop-opacity="0"/>
<stop offset="0.35" stop-color="#2EAAF8"/>
<stop offset="0.5" stop-color="#A1DBFF"/>
<stop offset="0.65" stop-color="#2EAAF8"/>
<stop offset="1" stop-color="#97D5FC" stop-opacity="0"/>
</linearGradient>
</defs>
</svg>
