<svg width="392" height="93" viewBox="0 0 392 93" fill="none" xmlns="http://www.w3.org/2000/svg">
<mask id="mask0_157_89" style="mask-type:luminance" maskUnits="userSpaceOnUse" x="0" y="0" width="392" height="68">
<path d="M391.868 0H0V68H391.868V0Z" fill="white"/>
</mask>
<g mask="url(#mask0_157_89)">
<path d="M0 28.8635H23.2896L0 57.4765V65.6326H36.3705V56.5588H13.173L36.3705 27.9458V19.7898H0V28.8635Z" fill="white"/>
<path d="M73.7246 21.9898C70.3857 20.0936 66.5172 19.1455 62.1261 19.1455C57.7352 19.1455 53.9284 20.1544 50.5275 22.1721C47.1266 24.1898 44.4637 26.943 42.5449 30.4254C40.6262 33.9079 39.6667 37.8825 39.6667 42.3434C39.6667 47.0534 40.6384 51.2105 42.5879 54.8145C44.5374 58.4246 47.2558 61.2324 50.755 63.2502C54.2481 65.2678 58.3193 66.2768 62.9564 66.2768C67.5934 66.2768 71.554 65.2192 75.2068 63.1104C78.8536 61.0015 81.6086 58.1146 83.466 54.4438L74.2784 51.4172C73.4727 53.1311 72.0338 54.5045 69.9612 55.5438C67.8886 56.5831 65.5516 57.0996 62.9564 57.0996C60.7916 57.0996 58.8728 56.6743 57.2063 55.8173C55.5335 54.9604 54.1558 53.757 53.0796 52.195C51.9973 50.6392 51.3024 48.7856 50.9949 46.6463H84.0258C84.1491 45.7286 84.2412 44.8595 84.3025 44.0329C84.3644 43.2065 84.3951 42.4284 84.3951 41.6931C84.3951 37.2322 83.454 33.3001 81.5661 29.9088C79.678 26.5175 77.0642 23.8738 73.7246 21.9775V21.9898ZM51.1793 38.2228C51.4868 36.2051 52.1818 34.4488 53.2641 32.9475C54.3466 31.4525 55.6627 30.2735 57.2063 29.4165C58.7498 28.5596 60.3918 28.1342 62.1261 28.1342C64.1063 28.1342 65.896 28.5778 67.5074 29.4651C69.1122 30.3525 70.4165 31.5619 71.4061 33.0873C72.3965 34.6188 72.9189 36.3266 72.9809 38.2228H51.1732H51.1793Z" fill="white"/>
<path d="M118.299 47.7891C124.283 46.2939 128.735 40.6723 128.735 33.9687C128.735 26.1166 122.634 19.7534 115.113 19.7534C114.695 19.7534 114.283 19.7777 113.877 19.8142V19.7534H90.76V66.265H101.22V48.1902H108.077L118.563 66.265H129.024L118.311 47.7951L118.299 47.7891ZM114.29 39.2806C114.148 39.2806 114.012 39.2684 113.877 39.2562V39.2806H101.214V28.6509H113.877V28.6753C114.012 28.6631 114.148 28.6509 114.29 28.6509C117.1 28.6509 119.381 31.0273 119.381 33.9627C119.381 36.8982 117.1 39.2744 114.29 39.2744V39.2806Z" fill="white"/>
<path d="M157.086 19.2061C156.952 19.2061 156.809 19.2061 156.675 19.2061C143.225 19.2061 132.315 29.9207 132.315 43.1394C132.315 56.358 143.218 67.0728 156.675 67.0728C156.7 67.0728 156.717 67.0728 156.742 67.0728C156.766 67.0728 156.786 67.0728 156.809 67.0728C162.468 67.0728 167.812 65.1522 172.074 61.9554C174.306 60.278 176.238 58.2481 177.762 55.9569C177.866 55.7928 185.683 43.1394 185.683 43.1394H173.199C173.199 43.1394 168.451 51.2711 167.264 52.5353C164.664 55.3005 160.955 57.0631 156.822 57.0631C156.822 57.0631 156.773 57.0631 156.748 57.0631C156.723 57.0631 156.7 57.0631 156.675 57.0631C148.852 57.0631 142.506 50.8274 142.506 43.1394C142.506 35.4513 148.84 29.228 156.656 29.2097H157.13L206.317 29.2643L183.495 67.0728H195.924L219.926 27.4654V19.2061H157.086Z" fill="url(#paint0_linear_157_89)"/>
<path fill-rule="evenodd" clip-rule="evenodd" d="M261.446 43.922L261.751 43.2965L264.755 37.0943C264.977 36.6364 265.444 36.3451 265.957 36.3451H270.311C271.286 36.3451 271.931 37.3466 271.52 38.2218L269.205 43.158C268.987 43.6239 268.515 43.922 267.996 43.922H261.446ZM253.676 44.6483C253.903 44.2029 254.363 43.922 254.866 43.922H261.446L258.078 50.7577C257.854 51.2112 257.389 51.4988 256.879 51.4988H250.823C250.625 51.4988 250.432 51.5551 250.265 51.6619C250.114 51.7598 249.989 51.8959 249.906 52.056L246.65 58.3569C246.422 58.7982 245.965 59.0758 245.464 59.0758H238.641L239.084 58.2496L242.674 51.4988H249.372C249.876 51.4988 250.336 51.2178 250.562 50.7725L253.676 44.6483ZM261.566 28.7681H266.627C267.605 28.7681 268.249 29.7763 267.833 30.6521L265.479 35.5884C265.26 36.0504 264.79 36.3451 264.274 36.3451H259.969C258.983 36.3451 258.34 35.323 258.771 34.4459L261.566 28.7681ZM246.646 43.922L250.184 37.0645C250.411 36.6229 250.869 36.3451 251.371 36.3451H255.689C256.677 36.3451 257.322 37.374 256.883 38.2518L254.414 43.1879C254.188 43.6375 253.726 43.922 253.219 43.922H246.646ZM243.271 36.3451L247.238 28.7681H254.402L250.922 35.6181C250.697 36.0638 250.236 36.3451 249.732 36.3451H243.27H243.271ZM235.989 36.3451H230.96C229.946 36.3451 229.303 35.2686 229.792 34.3886L232.529 29.4525C232.764 29.0304 233.212 28.7681 233.697 28.7681H240.073L235.989 36.3451ZM237.379 51.4988C236.371 51.4988 235.729 50.4355 236.203 49.556L239.243 43.922H244.45C245.45 43.922 246.095 44.9717 245.634 45.8507L242.674 51.4988H237.379ZM239.243 43.922H234.081C233.072 43.922 232.428 42.8521 232.91 41.9723L235.989 36.3451H243.271L239.243 43.922ZM224.441 43.922H217.807C217.331 43.922 216.893 44.1723 216.654 44.579L213.759 49.5151C213.242 50.3953 213.884 51.4988 214.911 51.4988H220.115L216.872 57.0983C216.362 57.9787 217.004 59.0758 218.028 59.0758H222.583C223.066 59.0758 223.511 58.8168 223.746 58.3989L227.634 51.4988H232.913C233.924 51.4988 234.568 52.5691 234.085 53.449L232.071 57.1256C231.59 58.0055 232.232 59.0758 233.243 59.0758H238.641L235.596 64.7129C235.121 65.5916 235.754 66.6548 236.76 66.6561C241.209 66.662 251.086 66.6745 254.227 66.6627C254.813 66.6607 255.545 66.425 256.026 66.0923C279.391 49.9132 284.743 28.078 275.951 16.8503C275.242 15.9447 274.017 16.4992 274.254 17.6212C274.884 20.619 275.94 23.1328 273.42 28.0742C273.2 28.5049 272.748 28.7681 272.262 28.7681H270.817C269.844 28.7681 269.198 27.767 269.608 26.8918L271.4 23.0675C271.81 22.1923 271.165 21.1912 270.191 21.1912H266.073C265.56 21.1912 265.093 21.4826 264.872 21.9407L261.566 28.7681H254.402L257.235 23.0973C257.675 22.2198 257.03 21.1912 256.042 21.1912H251.959C251.459 21.1912 250.999 21.4693 250.772 21.9112L247.238 28.7681H240.073L243.069 23.1263C243.537 22.2471 242.893 21.1912 241.89 21.1912H237.846C237.357 21.1912 236.907 21.4566 236.674 21.8829L233.288 28.0764C233.056 28.5026 232.606 28.7681 232.117 28.7681H226.524C226.044 28.7681 225.6 29.0244 225.364 29.4389L222.548 34.375C222.045 35.2552 222.688 36.3451 223.708 36.3451H226.437C227.455 36.3451 228.097 37.4283 227.601 38.3084L224.443 43.921C224.443 43.9216 224.443 43.922 224.441 43.922ZM220.115 51.4988L224.441 43.922H229.586C230.602 43.922 231.243 44.9988 230.755 45.8787L227.634 51.4988H220.115Z" fill="url(#paint1_linear_157_89)"/>
<path d="M391.14 55.0814C391.342 55.8149 391.444 56.6317 391.444 57.5318C391.444 58.4321 391.333 59.2571 391.115 60.0073C390.913 60.7574 390.576 61.4576 390.106 62.1077C389.652 62.7412 388.986 63.2413 388.111 63.608C387.236 63.9747 386.185 64.1581 384.956 64.1581C383.728 64.1581 382.676 63.9747 381.801 63.608C380.925 63.2413 380.261 62.7328 379.806 62.0828C379.352 61.4159 379.024 60.7158 378.823 59.9824C378.621 59.2488 378.52 58.4321 378.52 57.5318C378.52 56.6317 378.621 55.8149 378.823 55.0814C379.024 54.348 379.352 53.6644 379.806 53.031C380.277 52.3809 380.951 51.8725 381.825 51.5057C382.701 51.139 383.752 50.9556 384.982 50.9556C386.194 50.9556 387.236 51.139 388.111 51.5057C388.986 51.8725 389.659 52.3809 390.13 53.031C390.601 53.6644 390.938 54.348 391.14 55.0814ZM387.026 60.0324C387.447 59.4489 387.656 58.6154 387.656 57.5318C387.656 56.4483 387.455 55.6232 387.051 55.0564C386.665 54.4896 385.973 54.2062 384.982 54.2062C384.022 54.2062 383.341 54.4896 382.937 55.0564C382.534 55.6232 382.331 56.4483 382.331 57.5318C382.331 59.7657 383.207 60.8825 384.956 60.8825C385.932 60.8825 386.623 60.5991 387.026 60.0324Z" fill="url(#paint2_linear_157_89)"/>
<path d="M376.792 63.9331H375.025L374.091 61.9326C373.182 63.4163 371.66 64.1581 369.522 64.1581C367.924 64.1581 366.627 63.8247 365.635 63.158C364.659 62.4911 364.171 61.5159 364.171 60.2323C364.171 59.0321 364.592 58.1403 365.433 57.5569C366.275 56.9735 367.621 56.5817 369.472 56.3817L372.854 56.0316C372.854 55.2648 372.677 54.698 372.324 54.3313C371.987 53.9646 371.407 53.7811 370.582 53.7811C369.202 53.7811 368.512 54.3729 368.512 55.5565H364.676C364.676 54.0562 365.088 52.9143 365.913 52.1309C366.754 51.3473 368.276 50.9557 370.482 50.9557C371.811 50.9557 372.904 51.0973 373.762 51.3807C374.638 51.6475 375.286 52.0641 375.706 52.631C376.127 53.181 376.413 53.7728 376.564 54.4062C376.715 55.023 376.792 55.7899 376.792 56.7067V63.9331ZM372.854 58.5821L370.33 58.8821C368.967 59.0155 368.285 59.4155 368.285 60.0824C368.285 60.9658 368.967 61.4075 370.33 61.4075C371.171 61.4075 371.794 61.1492 372.198 60.6325C372.618 60.1157 372.837 59.4322 372.854 58.5821ZM376.944 47.405C376.944 48.4218 376.683 49.1803 376.161 49.6803C375.639 50.1805 374.663 50.4306 373.233 50.4306C372.694 50.4306 371.879 50.2472 370.784 49.8805C369.707 49.497 369.009 49.3052 368.689 49.3052C368.453 49.3052 368.26 49.3386 368.109 49.4053C367.958 49.4554 367.856 49.547 367.805 49.6803C367.756 49.797 367.722 49.897 367.705 49.9805C367.705 50.0472 367.705 50.1555 367.705 50.3055H364.372C364.322 50.1055 364.298 49.8388 364.298 49.5053C364.298 47.3549 365.542 46.2798 368.032 46.2798C368.605 46.2798 369.387 46.4714 370.381 46.8548C371.373 47.2215 372.106 47.405 372.577 47.405C372.828 47.405 373.023 47.3883 373.157 47.3549C373.308 47.305 373.41 47.2215 373.46 47.105C373.527 46.9882 373.561 46.8881 373.561 46.8048C373.577 46.7215 373.586 46.5881 373.586 46.4047H376.893C376.927 46.7215 376.944 47.0548 376.944 47.405Z" fill="url(#paint3_linear_157_89)"/>
<path d="M362.817 58.657C362.817 60.074 362.481 61.2325 361.807 62.1327C361.134 63.0329 360.133 63.6247 358.804 63.9081V64.2581C358.804 65.6417 358.458 66.5833 357.769 67.0838C357.096 67.5835 356.145 67.8337 354.916 67.8337H351.079V64.9332H354.033C354.42 64.9332 354.697 64.8583 354.867 64.7082C355.034 64.5748 355.119 64.3416 355.119 64.0081C351.803 63.4413 350.146 61.2825 350.146 57.5318C350.146 56.6317 350.247 55.8149 350.449 55.0814C350.668 54.3313 351.012 53.6395 351.483 53.0059C351.954 52.3559 352.627 51.8558 353.503 51.5057C354.395 51.139 355.463 50.9556 356.709 50.9556C358.728 50.9556 360.251 51.4391 361.278 52.406C362.304 53.3561 362.817 54.698 362.817 56.4317H358.854C358.787 55.6148 358.586 55.0397 358.249 54.7063C357.912 54.3562 357.374 54.1813 356.633 54.1813C355.674 54.1813 355.001 54.448 354.614 54.9814C354.243 55.5149 354.058 56.3399 354.058 57.4569C354.058 58.607 354.243 59.4572 354.614 60.0073C354.983 60.5574 355.657 60.8325 356.633 60.8325C357.374 60.8325 357.903 60.6658 358.223 60.3324C358.56 59.9823 358.771 59.4239 358.854 58.657H362.817Z" fill="url(#paint4_linear_157_89)"/>
<path d="M348.328 63.9331H344.365V51.1806H348.328V63.9331ZM348.909 47.805C348.909 48.6052 348.69 49.1553 348.251 49.4553C347.814 49.7553 347.184 49.9054 346.36 49.9054C345.5 49.9054 344.844 49.7636 344.39 49.4803C343.953 49.1802 343.734 48.6218 343.734 47.805C343.734 46.9881 343.953 46.438 344.39 46.1547C344.844 45.8546 345.5 45.7046 346.36 45.7046C347.2 45.7046 347.831 45.8546 348.251 46.1547C348.69 46.438 348.909 46.9881 348.909 47.805Z" fill="url(#paint5_linear_157_89)"/>
<path d="M341.899 63.9329H340.13L339.172 61.9325C338.769 62.5494 338.171 63.0744 337.379 63.5078C336.606 63.9412 335.646 64.158 334.502 64.158C333.678 64.158 332.938 64.0329 332.281 63.7829C331.641 63.5162 331.112 63.1745 330.691 62.7577C330.287 62.341 329.951 61.8409 329.681 61.2574C329.412 60.674 329.219 60.0822 329.101 59.4821C329 58.8654 328.949 58.2152 328.949 57.5317C328.949 56.6482 329.034 55.8397 329.202 55.1063C329.37 54.3728 329.639 53.681 330.01 53.0308C330.38 52.3807 330.91 51.8724 331.6 51.5057C332.307 51.1388 333.148 50.9555 334.124 50.9555C335.975 50.9555 337.245 51.439 337.935 52.4057V46.2546H341.899V63.9329ZM337.481 60.0822C337.835 59.5154 338.011 58.6653 338.011 57.5317C338.011 56.3981 337.842 55.548 337.506 54.9813C337.186 54.4146 336.513 54.1311 335.487 54.1311C334.494 54.1311 333.821 54.4146 333.468 54.9813C333.131 55.548 332.963 56.3981 332.963 57.5317C332.963 58.6653 333.131 59.5154 333.468 60.0822C333.821 60.6489 334.485 60.9323 335.462 60.9323C336.472 60.9323 337.145 60.6489 337.481 60.0822Z" fill="url(#paint6_linear_157_89)"/>
<path d="M327.399 60.0824C327.28 61.3159 326.7 62.3077 325.656 63.0579C324.614 63.7914 323.149 64.1581 321.264 64.1581C316.806 64.1581 314.575 61.9577 314.575 57.5569C314.575 56.8568 314.635 56.2066 314.753 55.6065C314.87 54.9898 315.08 54.3896 315.383 53.8062C315.687 53.2228 316.082 52.731 316.57 52.3309C317.058 51.9142 317.689 51.5807 318.462 51.3307C319.254 51.0806 320.162 50.9556 321.19 50.9556C322.366 50.9556 323.376 51.1473 324.219 51.5307C325.06 51.8974 325.699 52.4143 326.136 53.081C326.591 53.7479 326.911 54.4562 327.095 55.2063C327.28 55.9566 327.374 56.7817 327.374 57.6818C327.374 58.182 327.357 58.557 327.323 58.8072H318.539C318.572 60.5407 319.422 61.4076 321.088 61.4076C322.367 61.4076 323.099 60.9658 323.283 60.0824H327.399ZM323.283 56.1566C323.283 54.5896 322.518 53.8062 320.988 53.8062C319.523 53.8062 318.715 54.5896 318.564 56.1566H323.283Z" fill="url(#paint7_linear_157_89)"/>
<path d="M329.223 38.148H327.543L326.656 36.2604C325.888 37.6143 324.44 38.2913 322.313 38.2913C320.793 38.2913 319.562 37.9728 318.618 37.3355C317.691 36.6984 317.227 35.7667 317.227 34.5401C317.227 33.1543 317.819 32.2066 319.002 31.6969C320.186 31.1712 322.345 30.8049 325.48 30.5979C325.48 29.8651 325.32 29.3316 325 28.997C324.68 28.6466 324.12 28.4714 323.321 28.4714C322.584 28.4714 322.073 28.6147 321.785 28.9014C321.497 29.1722 321.354 29.5863 321.354 30.1439H317.707C317.707 28.7103 318.099 27.6192 318.883 26.8706C319.682 26.1219 321.13 25.7476 323.225 25.7476C324.488 25.7476 325.529 25.883 326.344 26.1538C327.175 26.4086 327.792 26.8069 328.191 27.3484C328.591 27.8741 328.863 28.4395 329.007 29.0449C329.15 29.6342 329.223 30.3668 329.223 31.2429V38.148ZM325.48 33.0349L323.081 33.2978C322.345 33.3933 321.833 33.5207 321.546 33.6799C321.273 33.8233 321.138 34.0464 321.138 34.349C321.138 34.7472 321.297 35.0658 321.618 35.3047C321.937 35.5436 322.425 35.6631 323.081 35.6631C324.649 35.6631 325.448 34.787 325.48 33.0349Z" fill="url(#paint8_linear_157_89)"/>
<path d="M317.227 39.6118H329.223V41.5924H317.227V39.6118Z" fill="url(#paint9_linear_157_89)"/>
<path d="M52.522 9.57439L55.7799 0.434814H58.7207L61.9786 9.57439H59.5281L59.0235 8.00353H55.4771L54.9726 9.57439H52.522ZM55.9817 6.30413H58.5189L57.2359 2.44838L55.9817 6.30413Z" fill="white"/>
<path d="M43.9446 9.57439V0.434814H47.5918C50.4604 0.434814 51.9452 2.07709 51.9452 4.94749C51.9452 7.78929 50.3596 9.57439 47.4331 9.57439H43.9446ZM46.2799 7.68934H47.0728C48.7738 7.68934 49.6532 7.16099 49.6532 4.9332C49.6388 2.70544 48.8026 2.31985 47.1305 2.31985H46.2799V7.68934Z" fill="white"/>
<path d="M39.3408 9.57439V0.434814H41.6762V9.57439H39.3408Z" fill="white"/>
<path d="M29.979 9.57439V0.434814H33.5109C37.0571 0.434814 37.403 2.29129 37.403 3.49086C37.403 4.50479 37.0427 6.08993 34.837 6.21846L37.8068 9.57439H34.9523L32.3143 6.11849V9.57439H29.979ZM32.3143 4.63331H33.482C34.765 4.63331 35.0388 4.01924 35.0388 3.49086C35.0388 2.91964 34.765 2.31985 33.482 2.31985H32.3143V4.63331Z" fill="white"/>
<path d="M20.6179 9.57439V0.434814H24.1498C27.6961 0.434814 28.0421 2.29129 28.0421 3.49086C28.0421 4.50479 27.6816 6.08993 25.4761 6.21846L28.4457 9.57439H25.5914L22.9533 6.11849V9.57439H20.6179ZM22.9533 4.63331H24.121C25.404 4.63331 25.6779 4.01924 25.6779 3.49086C25.6779 2.91964 25.404 2.31985 24.121 2.31985H22.9533V4.63331Z" fill="white"/>
<path d="M14.1681 9.70301C10.4921 9.70301 9.71362 7.4324 9.71362 5.0047C9.71362 2.57701 10.5065 0.306396 14.1681 0.306396C17.8585 0.306396 18.6513 2.57701 18.6513 5.01899C18.6513 7.4324 17.8585 9.70301 14.1681 9.70301ZM14.1681 7.80369C16.0277 7.80369 16.2728 6.57557 16.2728 5.01899C16.2728 3.44814 16.0277 2.17715 14.1681 2.17715C12.3517 2.17715 12.0778 3.44812 12.0778 5.0047C12.0778 6.57557 12.3517 7.80369 14.1681 7.80369Z" fill="white"/>
<path d="M4.32473 9.70301C0.749622 9.70301 0 7.4324 0 5.0047C0 2.57701 0.764037 0.306396 4.32473 0.306396C7.45296 0.306396 8.54852 2.04863 8.54852 4.04791H6.18436C6.04019 2.84835 5.59331 2.20571 4.32473 2.20571C2.63808 2.20571 2.36419 3.44812 2.36419 5.0047C2.36419 6.57557 2.62367 7.80369 4.32473 7.80369C5.60773 7.80369 6.04019 7.18965 6.18436 5.94723H8.56292C8.56292 8.06077 7.46736 9.70301 4.32473 9.70301Z" fill="white"/>
</g>
<path d="M302.838 34.954C302.755 33.4247 302.363 32.288 301.66 31.544C300.999 30.7587 299.903 30.366 298.374 30.366C296.018 30.366 294.137 31.3787 292.732 33.404C291.368 35.4293 290.252 38.674 289.384 43.138C290.583 41.6913 292.112 40.5547 293.972 39.728C295.832 38.9013 297.795 38.488 299.862 38.488C303.334 38.488 306.062 39.4387 308.046 41.34C310.03 43.2413 311.022 45.928 311.022 49.4C311.022 50.764 310.919 51.9833 310.712 53.058C310.175 56.0753 309.1 58.7207 307.488 60.994C305.876 63.2673 303.789 65.0447 301.226 66.326C298.705 67.6073 295.832 68.248 292.608 68.248C287.689 68.248 284.155 67.0287 282.006 64.59C279.898 62.1513 278.844 58.638 278.844 54.05C278.844 51.6527 279.154 48.656 279.774 45.06C281.179 37.2067 283.515 31.3787 286.78 27.576C290.087 23.732 294.613 21.81 300.358 21.81C304.574 21.81 307.695 22.9053 309.72 25.096C311.745 27.2453 312.758 29.994 312.758 33.342C312.758 34.0447 312.737 34.582 312.696 34.954H302.838ZM295.832 46.858C293.848 46.858 292.112 47.5193 290.624 48.842C289.177 50.1647 288.454 52.0453 288.454 54.484C288.454 56.0133 288.909 57.1913 289.818 58.018C290.727 58.8447 292.05 59.258 293.786 59.258C295.605 59.258 297.134 58.7207 298.374 57.646C299.655 56.53 300.461 55.0213 300.792 53.12C300.875 52.4587 300.916 51.9627 300.916 51.632C300.916 50.144 300.482 48.9867 299.614 48.16C298.746 47.292 297.485 46.858 295.832 46.858Z" fill="url(#paint10_linear_157_89)"/>
<defs>
<linearGradient id="paint0_linear_157_89" x1="132.622" y1="16.5045" x2="391.032" y2="65.9191" gradientUnits="userSpaceOnUse">
<stop stop-color="#003E7F"/>
<stop offset="1" stop-color="#2EAAF8"/>
</linearGradient>
<linearGradient id="paint1_linear_157_89" x1="132.622" y1="16.5044" x2="391.032" y2="65.919" gradientUnits="userSpaceOnUse">
<stop stop-color="#003E7F"/>
<stop offset="1" stop-color="#2EAAF8"/>
</linearGradient>
<linearGradient id="paint2_linear_157_89" x1="132.622" y1="16.5049" x2="391.032" y2="65.9198" gradientUnits="userSpaceOnUse">
<stop stop-color="#003E7F"/>
<stop offset="1" stop-color="#2EAAF8"/>
</linearGradient>
<linearGradient id="paint3_linear_157_89" x1="132.622" y1="16.505" x2="391.032" y2="65.9194" gradientUnits="userSpaceOnUse">
<stop stop-color="#003E7F"/>
<stop offset="1" stop-color="#2EAAF8"/>
</linearGradient>
<linearGradient id="paint4_linear_157_89" x1="132.622" y1="16.5049" x2="391.032" y2="65.9196" gradientUnits="userSpaceOnUse">
<stop stop-color="#003E7F"/>
<stop offset="1" stop-color="#2EAAF8"/>
</linearGradient>
<linearGradient id="paint5_linear_157_89" x1="132.621" y1="16.5049" x2="391.032" y2="65.92" gradientUnits="userSpaceOnUse">
<stop stop-color="#003E7F"/>
<stop offset="1" stop-color="#2EAAF8"/>
</linearGradient>
<linearGradient id="paint6_linear_157_89" x1="132.622" y1="16.5047" x2="391.032" y2="65.9195" gradientUnits="userSpaceOnUse">
<stop stop-color="#003E7F"/>
<stop offset="1" stop-color="#2EAAF8"/>
</linearGradient>
<linearGradient id="paint7_linear_157_89" x1="132.622" y1="16.505" x2="391.032" y2="65.9194" gradientUnits="userSpaceOnUse">
<stop stop-color="#003E7F"/>
<stop offset="1" stop-color="#2EAAF8"/>
</linearGradient>
<linearGradient id="paint8_linear_157_89" x1="132.622" y1="16.5048" x2="391.032" y2="65.9195" gradientUnits="userSpaceOnUse">
<stop stop-color="#003E7F"/>
<stop offset="1" stop-color="#2EAAF8"/>
</linearGradient>
<linearGradient id="paint9_linear_157_89" x1="132.622" y1="16.505" x2="391.032" y2="65.9196" gradientUnits="userSpaceOnUse">
<stop stop-color="#003E7F"/>
<stop offset="1" stop-color="#2EAAF8"/>
</linearGradient>
<linearGradient id="paint10_linear_157_89" x1="295" y1="0" x2="295" y2="93" gradientUnits="userSpaceOnUse">
<stop stop-color="#2EAAF8"/>
<stop offset="1" stop-color="#136AB0"/>
</linearGradient>
</defs>
</svg>
