<svg width="347" height="61" viewBox="0 0 347 61" fill="none" xmlns="http://www.w3.org/2000/svg">
<g clip-path="url(#clip0_29_94)">
<mask id="mask0_29_94" style="mask-type:luminance" maskUnits="userSpaceOnUse" x="0" y="0" width="347" height="61">
<path d="M347 0H0V60.784H347V0Z" fill="white"/>
</mask>
<g mask="url(#mask0_29_94)">
<path d="M0 25.8003H20.623L0 51.377V58.6675H32.2061V50.5567H11.6647L32.2061 24.98V17.6895H0V25.8003Z" fill="#7E7F7F"/>
<path d="M65.2833 19.6563C62.3267 17.9613 58.9011 17.1138 55.0128 17.1138C51.1246 17.1138 47.7537 18.0156 44.7422 19.8192C41.7307 21.6228 39.3727 24.0838 37.6736 27.1967C35.9746 30.3096 35.125 33.8625 35.125 37.85C35.125 42.0602 35.9854 45.7761 37.7117 48.9977C39.438 52.2247 41.8451 54.7345 44.9437 56.5382C48.0368 58.3417 51.6419 59.2436 55.748 59.2436C59.8541 59.2436 63.3612 58.2983 66.5958 56.4132C69.825 54.5281 72.2646 51.9476 73.9093 48.6663L65.7737 45.9609C65.0602 47.4929 63.7861 48.7206 61.9508 49.6496C60.1155 50.5786 58.0461 51.0403 55.748 51.0403C53.8311 51.0403 52.132 50.6601 50.6563 49.8941C49.175 49.1281 47.9551 48.0524 47.0021 46.6562C46.0437 45.2655 45.4284 43.6086 45.1561 41.6963H74.405C74.5142 40.876 74.5957 40.0991 74.65 39.3602C74.7048 38.6215 74.732 37.926 74.732 37.2687C74.732 33.2812 73.8987 29.7663 72.2269 26.7349C70.555 23.7035 68.2405 21.3403 65.2833 19.6453V19.6563ZM45.3194 34.1667C45.5917 32.3631 46.2071 30.7931 47.1655 29.4512C48.124 28.1148 49.2894 27.0609 50.6563 26.2949C52.0231 25.5289 53.4771 25.1486 55.0128 25.1486C56.7663 25.1486 58.351 25.5452 59.7779 26.3383C61.199 27.1315 62.3539 28.2126 63.2302 29.5761C64.1072 30.9451 64.5698 32.4717 64.6247 34.1667H45.314H45.3194Z" fill="#7E7F7F"/>
<path d="M104.754 42.7178C110.053 41.3813 113.995 36.3562 113.995 30.364C113.995 23.3451 108.593 17.6572 101.933 17.6572C101.563 17.6572 101.198 17.6789 100.838 17.7115V17.6572H80.3682V59.2331H89.6309V43.0763H95.7028L104.988 59.2331H114.251L104.765 42.7232L104.754 42.7178ZM101.204 35.1122C101.078 35.1122 100.958 35.1013 100.838 35.0904V35.1122H89.6256V25.6105H100.838V25.6323C100.958 25.6214 101.078 25.6105 101.204 25.6105C103.692 25.6105 105.712 27.7347 105.712 30.3586C105.712 32.9826 103.692 35.1067 101.204 35.1067V35.1122Z" fill="#7E7F7F"/>
<path d="M139.1 17.168C138.981 17.168 138.855 17.168 138.736 17.168C126.826 17.168 117.165 26.7456 117.165 38.5616C117.165 50.3775 126.82 59.9552 138.736 59.9552C138.758 59.9552 138.773 59.9552 138.795 59.9552C138.817 59.9552 138.834 59.9552 138.855 59.9552C143.866 59.9552 148.598 58.2384 152.372 55.3809C154.348 53.8815 156.059 52.067 157.409 50.0189C157.501 49.8722 164.423 38.5616 164.423 38.5616H153.368C153.368 38.5616 149.164 45.8304 148.113 46.9604C145.81 49.4322 142.526 51.0077 138.866 51.0077C138.866 51.0077 138.823 51.0077 138.801 51.0077C138.779 51.0077 138.758 51.0077 138.736 51.0077C131.809 51.0077 126.189 45.4338 126.189 38.5616C126.189 31.6893 131.798 26.1264 138.719 26.1101H139.139L182.694 26.1589L162.485 59.9552H173.491L194.745 24.5509V17.168H139.1Z" fill="url(#paint0_linear_29_94)"/>
<path fill-rule="evenodd" clip-rule="evenodd" d="M231.511 39.2612L231.781 38.7021L234.441 33.158C234.637 32.7487 235.051 32.4883 235.505 32.4883H239.361C240.224 32.4883 240.795 33.3836 240.431 34.1659L238.381 38.5783C238.188 38.9947 237.77 39.2612 237.311 39.2612H231.511ZM224.63 39.9104C224.831 39.5123 225.239 39.2612 225.684 39.2612H231.511L228.528 45.3715C228.33 45.7769 227.918 46.034 227.467 46.034H222.104C221.929 46.034 221.758 46.0843 221.61 46.1798C221.476 46.2673 221.365 46.3889 221.292 46.532L218.409 52.1643C218.207 52.5588 217.802 52.8069 217.359 52.8069H211.317L211.709 52.0684L214.888 46.034H220.819C221.265 46.034 221.673 45.7828 221.873 45.3847L224.63 39.9104ZM231.617 25.7154H236.098C236.964 25.7154 237.535 26.6166 237.166 27.3995L235.082 31.8119C234.888 32.2249 234.472 32.4883 234.015 32.4883H230.203C229.33 32.4883 228.76 31.5747 229.142 30.7907L231.617 25.7154ZM218.405 39.2612L221.538 33.1314C221.739 32.7367 222.145 32.4883 222.589 32.4883H226.413C227.288 32.4883 227.859 33.4081 227.47 34.1927L225.284 38.605C225.084 39.0069 224.675 39.2612 224.226 39.2612H218.405ZM215.417 32.4883L218.929 25.7154H225.273L222.192 31.8385C221.992 32.2369 221.584 32.4883 221.138 32.4883H215.416H215.417ZM208.968 32.4883H204.515C203.617 32.4883 203.048 31.5261 203.481 30.7395L205.905 26.3272C206.113 25.9499 206.509 25.7154 206.939 25.7154H212.585L208.968 32.4883ZM210.199 46.034C209.307 46.034 208.738 45.0835 209.158 44.2973L211.85 39.2612H216.461C217.346 39.2612 217.917 40.1995 217.509 40.9852L214.888 46.034H210.199ZM211.85 39.2612H207.279C206.385 39.2612 205.815 38.3048 206.242 37.5184L208.968 32.4883H215.417L211.85 39.2612ZM198.743 39.2612H192.868C192.447 39.2612 192.059 39.4849 191.847 39.8485L189.284 44.2608C188.826 45.0476 189.394 46.034 190.304 46.034H194.912L192.04 51.0393C191.589 51.8262 192.157 52.8069 193.064 52.8069H197.097C197.525 52.8069 197.919 52.5754 198.127 52.2018L201.57 46.034H206.245C207.14 46.034 207.71 46.9907 207.282 47.7772L205.499 51.0637C205.073 51.8502 205.642 52.8069 206.537 52.8069H211.317L208.62 57.8458C208.2 58.6313 208.76 59.5816 209.651 59.5828C213.591 59.5881 222.337 59.5993 225.118 59.5887C225.637 59.5869 226.285 59.3762 226.711 59.0788C247.401 44.6166 252.14 25.0985 244.355 15.0623C243.727 14.2528 242.642 14.7484 242.852 15.7514C243.41 18.4311 244.345 20.6781 242.114 25.0951C241.919 25.4801 241.519 25.7154 241.088 25.7154H239.809C238.947 25.7154 238.375 24.8205 238.738 24.0382L240.325 20.6197C240.688 19.8374 240.117 18.9425 239.254 18.9425H235.608C235.154 18.9425 234.74 19.203 234.544 19.6125L231.617 25.7154H225.273L227.782 20.6464C228.171 19.862 227.6 18.9425 226.725 18.9425H223.11C222.667 18.9425 222.26 19.1911 222.059 19.5861L218.929 25.7154H212.585L215.238 20.6723C215.652 19.8864 215.082 18.9425 214.194 18.9425H210.613C210.18 18.9425 209.781 19.1798 209.575 19.5608L206.577 25.0971C206.371 25.4781 205.973 25.7154 205.54 25.7154H200.587C200.162 25.7154 199.769 25.9445 199.56 26.315L197.066 30.7273C196.621 31.5141 197.19 32.4883 198.094 32.4883H200.51C201.412 32.4883 201.98 33.4566 201.541 34.2433L198.744 39.2603C198.744 39.2608 198.744 39.2612 198.743 39.2612ZM194.912 46.034L198.743 39.2612H203.299C204.198 39.2612 204.766 40.2237 204.334 41.0103L201.57 46.034H194.912Z" fill="url(#paint1_linear_29_94)"/>
<path d="M346.355 49.2363C346.534 49.892 346.624 50.6221 346.624 51.4267C346.624 52.2314 346.526 52.9689 346.333 53.6395C346.154 54.31 345.856 54.9359 345.439 55.517C345.037 56.0833 344.448 56.5303 343.673 56.8581C342.898 57.1859 341.967 57.3498 340.879 57.3498C339.792 57.3498 338.86 57.1859 338.085 56.8581C337.31 56.5303 336.722 56.0758 336.319 55.4947C335.917 54.8986 335.626 54.2728 335.448 53.6172C335.269 52.9615 335.18 52.2314 335.18 51.4267C335.18 50.6221 335.269 49.892 335.448 49.2363C335.626 48.5807 335.917 47.9697 336.319 47.4035C336.736 46.8224 337.333 46.3679 338.107 46.0401C338.882 45.7123 339.813 45.5483 340.902 45.5483C341.975 45.5483 342.898 45.7123 343.673 46.0401C344.448 46.3679 345.044 46.8224 345.461 47.4035C345.878 47.9697 346.176 48.5807 346.355 49.2363ZM342.712 53.6619C343.085 53.1403 343.27 52.3953 343.27 51.4267C343.27 50.4582 343.092 49.7206 342.734 49.214C342.392 48.7073 341.78 48.454 340.902 48.454C340.052 48.454 339.449 48.7073 339.091 49.214C338.734 49.7206 338.555 50.4582 338.555 51.4267C338.555 53.4235 339.33 54.4218 340.879 54.4218C341.743 54.4218 342.355 54.1685 342.712 53.6619Z" fill="url(#paint2_linear_29_94)"/>
<path d="M333.65 57.1487H332.085L331.258 55.3605C330.453 56.6867 329.105 57.3498 327.212 57.3498C325.797 57.3498 324.649 57.0518 323.77 56.4558C322.906 55.8597 322.474 54.988 322.474 53.8406C322.474 52.7678 322.847 51.9706 323.591 51.4491C324.337 50.9276 325.529 50.5774 327.168 50.3986L330.163 50.0857C330.163 49.4002 330.006 48.8936 329.693 48.5658C329.395 48.238 328.881 48.074 328.151 48.074C326.929 48.074 326.318 48.603 326.318 49.661H322.921C322.921 48.3199 323.286 47.2992 324.016 46.5989C324.761 45.8985 326.109 45.5484 328.062 45.5484C329.239 45.5484 330.207 45.675 330.967 45.9283C331.742 46.1668 332.316 46.5392 332.688 47.0459C333.061 47.5376 333.314 48.0666 333.448 48.6328C333.582 49.1841 333.65 49.8696 333.65 50.6891V57.1487ZM330.163 52.3655L327.928 52.6337C326.721 52.7529 326.117 53.1105 326.117 53.7066C326.117 54.4963 326.721 54.8911 327.928 54.8911C328.672 54.8911 329.224 54.6602 329.582 54.1983C329.954 53.7364 330.148 53.1254 330.163 52.3655ZM333.784 42.3745C333.784 43.2834 333.553 43.9614 333.091 44.4084C332.629 44.8555 331.765 45.079 330.498 45.079C330.021 45.079 329.299 44.9151 328.33 44.5873C327.376 44.2445 326.758 44.0731 326.475 44.0731C326.266 44.0731 326.095 44.1029 325.961 44.1625C325.827 44.2073 325.737 44.2892 325.692 44.4084C325.648 44.5127 325.618 44.6021 325.603 44.6767C325.603 44.7363 325.603 44.8331 325.603 44.9672H322.652C322.608 44.7884 322.586 44.55 322.586 44.2519C322.586 42.3297 323.688 41.3687 325.893 41.3687C326.4 41.3687 327.093 41.54 327.973 41.8827C328.851 42.2105 329.5 42.3745 329.917 42.3745C330.14 42.3745 330.312 42.3596 330.431 42.3297C330.565 42.2851 330.655 42.2105 330.699 42.1063C330.759 42.0019 330.789 41.9125 330.789 41.838C330.803 41.7635 330.811 41.6443 330.811 41.4804H333.739C333.769 41.7635 333.784 42.0615 333.784 42.3745Z" fill="url(#paint3_linear_29_94)"/>
<path d="M321.275 52.4325C321.275 53.6991 320.977 54.7347 320.381 55.5393C319.785 56.344 318.898 56.873 317.721 57.1263V57.4392C317.721 58.676 317.415 59.5177 316.805 59.965C316.209 60.4117 315.367 60.6354 314.279 60.6354H310.881V58.0427H313.497C313.839 58.0427 314.085 57.9757 314.235 57.8415C314.383 57.7223 314.458 57.5138 314.458 57.2157C311.522 56.7091 310.055 54.7794 310.055 51.4267C310.055 50.6221 310.144 49.892 310.323 49.2363C310.517 48.5658 310.822 47.9474 311.239 47.3811C311.656 46.8 312.252 46.353 313.027 46.0401C313.817 45.7123 314.763 45.5483 315.866 45.5483C317.654 45.5483 319.003 45.9805 319.912 46.8448C320.821 47.6941 321.275 48.8936 321.275 50.4433H317.766C317.706 49.7131 317.528 49.199 317.23 48.901C316.932 48.5881 316.455 48.4317 315.799 48.4317C314.95 48.4317 314.354 48.6701 314.011 49.1469C313.683 49.6238 313.519 50.3613 313.519 51.3597C313.519 52.3878 313.683 53.1478 314.011 53.6395C314.338 54.1312 314.935 54.3771 315.799 54.3771C316.455 54.3771 316.924 54.2281 317.207 53.9301C317.505 53.6171 317.692 53.118 317.766 52.4325H321.275Z" fill="url(#paint4_linear_29_94)"/>
<path d="M308.445 57.1486H304.936V45.7494H308.445V57.1486ZM308.959 42.732C308.959 43.4473 308.765 43.939 308.377 44.2072C307.99 44.4754 307.432 44.6095 306.702 44.6095C305.941 44.6095 305.36 44.4828 304.958 44.2295C304.571 43.9613 304.377 43.4621 304.377 42.732C304.377 42.0018 304.571 41.5101 304.958 41.2568C305.36 40.9886 305.941 40.8545 306.702 40.8545C307.446 40.8545 308.005 40.9886 308.377 41.2568C308.765 41.5101 308.959 42.0018 308.959 42.732Z" fill="url(#paint5_linear_29_94)"/>
<path d="M302.752 57.1485H301.186L300.337 55.3604C299.98 55.9118 299.451 56.3811 298.75 56.7685C298.065 57.1559 297.215 57.3497 296.202 57.3497C295.472 57.3497 294.817 57.2379 294.235 57.0144C293.669 56.776 293.2 56.4706 292.827 56.098C292.47 55.7255 292.172 55.2785 291.933 54.7569C291.695 54.2354 291.524 53.7064 291.419 53.17C291.33 52.6187 291.285 52.0375 291.285 51.4266C291.285 50.6368 291.36 49.9141 291.509 49.2585C291.658 48.6029 291.896 47.9845 292.224 47.4033C292.552 46.8222 293.021 46.3678 293.632 46.04C294.258 45.7121 295.003 45.5482 295.867 45.5482C297.506 45.5482 298.631 45.9804 299.242 46.8445V41.3462H302.752V57.1485ZM298.84 53.7064C299.153 53.1998 299.309 52.4399 299.309 51.4266C299.309 50.4133 299.16 49.6534 298.862 49.1468C298.579 48.6402 297.983 48.3868 297.074 48.3868C296.195 48.3868 295.599 48.6402 295.286 49.1468C294.988 49.6534 294.839 50.4133 294.839 51.4266C294.839 52.4399 294.988 53.1998 295.286 53.7064C295.599 54.213 296.187 54.4663 297.052 54.4663C297.946 54.4663 298.542 54.213 298.84 53.7064Z" fill="url(#paint6_linear_29_94)"/>
<path d="M289.912 53.7066C289.807 54.8092 289.293 55.6958 288.369 56.3664C287.446 57.022 286.149 57.3498 284.48 57.3498C280.532 57.3498 278.557 55.3829 278.557 51.4491C278.557 50.8233 278.61 50.2421 278.714 49.7057C278.818 49.1544 279.004 48.6179 279.272 48.0964C279.541 47.5749 279.891 47.1353 280.323 46.7777C280.755 46.4052 281.314 46.1071 281.999 45.8836C282.7 45.6601 283.504 45.5483 284.414 45.5483C285.456 45.5483 286.35 45.7197 287.096 46.0624C287.841 46.3902 288.407 46.8522 288.794 47.4482C289.197 48.0443 289.48 48.6775 289.643 49.348C289.807 50.0186 289.89 50.7562 289.89 51.5608C289.89 52.0079 289.875 52.3431 289.845 52.5667H282.067C282.096 54.1163 282.849 54.8912 284.324 54.8912C285.456 54.8912 286.105 54.4963 286.268 53.7066H289.912ZM286.268 50.1974C286.268 48.7967 285.59 48.0964 284.235 48.0964C282.938 48.0964 282.223 48.7967 282.089 50.1974H286.268Z" fill="url(#paint7_linear_29_94)"/>
<path d="M291.527 34.0996H290.04L289.254 32.4123C288.574 33.6226 287.292 34.2277 285.409 34.2277C284.063 34.2277 282.973 33.943 282.137 33.3734C281.316 32.8039 280.905 31.971 280.905 30.8746C280.905 29.6359 281.429 28.7887 282.477 28.3331C283.525 27.8632 285.437 27.5358 288.213 27.3507C288.213 26.6957 288.071 26.2188 287.788 25.9197C287.505 25.6065 287.009 25.4499 286.301 25.4499C285.649 25.4499 285.196 25.578 284.941 25.8343C284.686 26.0763 284.559 26.4465 284.559 26.9449H281.33C281.33 25.6634 281.677 24.6881 282.371 24.019C283.079 23.3497 284.361 23.0151 286.216 23.0151C287.335 23.0151 288.256 23.1362 288.978 23.3782C289.714 23.606 290.26 23.962 290.614 24.4461C290.968 24.916 291.209 25.4214 291.336 25.9625C291.463 26.4893 291.527 27.1442 291.527 27.9273V34.0996ZM288.213 29.5291L286.089 29.7641C285.437 29.8495 284.984 29.9634 284.729 30.1057C284.488 30.2339 284.368 30.4333 284.368 30.7038C284.368 31.0597 284.509 31.3445 284.793 31.5581C285.076 31.7716 285.508 31.8784 286.089 31.8784C287.477 31.8784 288.185 31.0953 288.213 29.5291Z" fill="url(#paint8_linear_29_94)"/>
<path d="M280.905 35.4082H291.527V37.1786H280.905V35.4082Z" fill="url(#paint9_linear_29_94)"/>
<path d="M46.5078 8.55838L49.3927 0.388672H51.9968L54.8817 8.55838H52.7117L52.2649 7.15421H49.1246L48.6778 8.55838H46.5078ZM49.5714 5.63515H51.8181L50.682 2.18856L49.5714 5.63515Z" fill="#7E7F7F"/>
<path d="M38.9131 8.55838V0.388672H42.1427C44.6829 0.388672 45.9977 1.85667 45.9977 4.42247C45.9977 6.96271 44.5936 8.55838 42.0022 8.55838H38.9131ZM40.981 6.87336H41.6831C43.1894 6.87336 43.9681 6.40108 43.9681 4.4097C43.9553 2.41834 43.2149 2.07367 41.7342 2.07367H40.981V6.87336Z" fill="#7E7F7F"/>
<path d="M34.8359 8.55838V0.388672H36.9039V8.55838H34.8359Z" fill="#7E7F7F"/>
<path d="M26.5469 8.55838V0.388672H29.6744C32.8146 0.388672 33.1209 2.04814 33.1209 3.12042C33.1209 4.02675 32.8018 5.44368 30.8487 5.55857L33.4784 8.55838H30.9508L28.6148 5.46921V8.55838H26.5469ZM28.6148 4.14163H29.6488C30.7849 4.14163 31.0274 3.59273 31.0274 3.12042C31.0274 2.60981 30.7849 2.07367 29.6488 2.07367H28.6148V4.14163Z" fill="#7E7F7F"/>
<path d="M18.2568 8.55838V0.388672H21.3843C24.5245 0.388672 24.8309 2.04814 24.8309 3.12042C24.8309 4.02675 24.5117 5.44368 22.5587 5.55857L25.1883 8.55838H22.6608L20.3248 5.46921V8.55838H18.2568ZM20.3248 4.14163H21.3588C22.4949 4.14163 22.7374 3.59273 22.7374 3.12042C22.7374 2.60981 22.4949 2.07367 21.3588 2.07367H20.3248V4.14163Z" fill="#7E7F7F"/>
<path d="M12.546 8.67339C9.2909 8.67339 8.60156 6.64373 8.60156 4.47366C8.60156 2.30359 9.30365 0.273926 12.546 0.273926C15.8139 0.273926 16.5159 2.30359 16.5159 4.48643C16.5159 6.64373 15.8139 8.67339 12.546 8.67339ZM12.546 6.97562C14.1927 6.97562 14.4097 5.87783 14.4097 4.48643C14.4097 3.08227 14.1927 1.94616 12.546 1.94616C10.9376 1.94616 10.695 3.08226 10.695 4.47366C10.695 5.87783 10.9376 6.97562 12.546 6.97562Z" fill="#7E7F7F"/>
<path d="M3.82955 8.67339C0.663791 8.67339 0 6.64373 0 4.47366C0 2.30359 0.676556 0.273926 3.82955 0.273926C6.59961 0.273926 7.56973 1.83128 7.56973 3.6184H5.47626C5.3486 2.54613 4.95288 1.97169 3.82955 1.97169C2.33602 1.97169 2.09349 3.08226 2.09349 4.47366C2.09349 5.87783 2.32326 6.97562 3.82955 6.97562C4.96565 6.97562 5.3486 6.42674 5.47626 5.31617H7.58248C7.58248 7.20542 6.61236 8.67339 3.82955 8.67339Z" fill="#7E7F7F"/>
</g>
<path d="M259.611 60C256.633 60 254.069 59.4408 251.92 58.3223C249.77 57.2038 248.181 55.6641 247.153 53.7033C246.125 51.7425 245.784 49.4917 246.131 46.9509H255.745C255.572 48.4974 255.979 49.7471 256.967 50.6999C257.968 51.6527 259.264 52.1291 260.853 52.1291C262.121 52.1291 263.276 51.846 264.318 51.2799C265.372 50.7137 266.254 49.9197 266.961 48.8979C267.669 47.876 268.13 46.6885 268.343 45.3353C268.57 43.9682 268.49 42.7738 268.103 41.7519C267.716 40.7163 267.081 39.9154 266.2 39.3492C265.319 38.7831 264.251 38.5 262.996 38.5C261.794 38.5 260.619 38.7762 259.471 39.3285C258.336 39.8671 257.414 40.6127 256.707 41.5655L248.214 39.8671L253.682 17H280L278.698 25.2645H260.532L257.988 35.2688H258.229C259.097 34.0951 260.352 33.1285 261.994 32.369C263.637 31.5957 265.426 31.2091 267.362 31.2091C269.819 31.2091 271.908 31.8028 273.631 32.9904C275.367 34.1641 276.622 35.8004 277.396 37.8993C278.171 39.9844 278.338 42.3664 277.897 45.0453C277.456 47.9589 276.395 50.5411 274.712 52.7919C273.043 55.0289 270.907 56.7895 268.303 58.0737C265.713 59.3579 262.815 60 259.611 60Z" fill="url(#paint10_linear_29_94)"/>
</g>
<defs>
<linearGradient id="paint0_linear_29_94" x1="117.437" y1="14.7531" x2="346.41" y2="58.1281" gradientUnits="userSpaceOnUse">
<stop stop-color="#003E7F"/>
<stop offset="1" stop-color="#2EAAF8"/>
</linearGradient>
<linearGradient id="paint1_linear_29_94" x1="117.437" y1="14.7531" x2="346.41" y2="58.1281" gradientUnits="userSpaceOnUse">
<stop stop-color="#003E7F"/>
<stop offset="1" stop-color="#2EAAF8"/>
</linearGradient>
<linearGradient id="paint2_linear_29_94" x1="117.437" y1="14.7535" x2="346.41" y2="58.1287" gradientUnits="userSpaceOnUse">
<stop stop-color="#003E7F"/>
<stop offset="1" stop-color="#2EAAF8"/>
</linearGradient>
<linearGradient id="paint3_linear_29_94" x1="117.437" y1="14.7535" x2="346.41" y2="58.1283" gradientUnits="userSpaceOnUse">
<stop stop-color="#003E7F"/>
<stop offset="1" stop-color="#2EAAF8"/>
</linearGradient>
<linearGradient id="paint4_linear_29_94" x1="117.437" y1="14.7535" x2="346.41" y2="58.1286" gradientUnits="userSpaceOnUse">
<stop stop-color="#003E7F"/>
<stop offset="1" stop-color="#2EAAF8"/>
</linearGradient>
<linearGradient id="paint5_linear_29_94" x1="117.436" y1="14.7534" x2="346.41" y2="58.1288" gradientUnits="userSpaceOnUse">
<stop stop-color="#003E7F"/>
<stop offset="1" stop-color="#2EAAF8"/>
</linearGradient>
<linearGradient id="paint6_linear_29_94" x1="117.437" y1="14.7533" x2="346.41" y2="58.1285" gradientUnits="userSpaceOnUse">
<stop stop-color="#003E7F"/>
<stop offset="1" stop-color="#2EAAF8"/>
</linearGradient>
<linearGradient id="paint7_linear_29_94" x1="117.437" y1="14.7535" x2="346.41" y2="58.1284" gradientUnits="userSpaceOnUse">
<stop stop-color="#003E7F"/>
<stop offset="1" stop-color="#2EAAF8"/>
</linearGradient>
<linearGradient id="paint8_linear_29_94" x1="117.437" y1="14.7532" x2="346.41" y2="58.1283" gradientUnits="userSpaceOnUse">
<stop stop-color="#003E7F"/>
<stop offset="1" stop-color="#2EAAF8"/>
</linearGradient>
<linearGradient id="paint9_linear_29_94" x1="117.437" y1="14.7534" x2="346.41" y2="58.1284" gradientUnits="userSpaceOnUse">
<stop stop-color="#003E7F"/>
<stop offset="1" stop-color="#2EAAF8"/>
</linearGradient>
<linearGradient id="paint10_linear_29_94" x1="254.072" y1="17" x2="271.928" y2="60" gradientUnits="userSpaceOnUse">
<stop stop-color="#136AB0"/>
<stop offset="1" stop-color="#2DA8F6"/>
</linearGradient>
<clipPath id="clip0_29_94">
<rect width="347" height="61" fill="white"/>
</clipPath>
</defs>
</svg>
